<?xml version="1.0" encoding="utf-8"?>
<!-- Generator: Adobe Illustrator 22.0.1, SVG Export Plug-In . SVG Version: 6.00 Build 0)  -->
<svg version="1.1" xmlns="http://www.w3.org/2000/svg" xmlns:xlink="http://www.w3.org/1999/xlink" x="0px" y="0px"
	 viewBox="0 0 512 512" style="enable-background:new 0 0 512 512;" xml:space="preserve">
<style type="text/css">
	.st0{fill:#7585F0;stroke:#000000;stroke-width:20;stroke-linecap:round;stroke-linejoin:round;stroke-miterlimit:10;}
	.st1{fill:none;stroke:#000000;stroke-width:20;stroke-linecap:round;stroke-linejoin:round;stroke-miterlimit:10;}
	.st2{fill:#FFFFFF;}
	.st3{fill:#E4B75C;stroke:#000000;stroke-width:20;stroke-linecap:round;stroke-linejoin:round;stroke-miterlimit:10;}
	.st4{fill:#DE5A5A;stroke:#000000;stroke-width:20;stroke-linecap:round;stroke-linejoin:round;stroke-miterlimit:10;}
	.st5{fill:#D4F4FF;}
	.st6{fill:#D4F4FF;stroke:#000000;stroke-width:20;stroke-linecap:round;stroke-linejoin:round;stroke-miterlimit:10;}
	.st7{fill:#F2DF98;stroke:#000000;stroke-width:20;stroke-linecap:round;stroke-linejoin:round;stroke-miterlimit:10;}
	.st8{fill:#FFFFFF;stroke:#000000;stroke-width:20;stroke-linecap:round;stroke-linejoin:round;stroke-miterlimit:10;}
	.st9{fill:#87BF8C;stroke:#000000;stroke-width:20;stroke-linecap:round;stroke-linejoin:round;stroke-miterlimit:10;}
	.st10{fill:#7585F0;}
	.st11{fill:#EDD4B4;stroke:#000000;stroke-width:20;stroke-linecap:round;stroke-linejoin:round;stroke-miterlimit:10;}
	.st12{fill:#E4B75C;}
	.st13{fill:#AACF9A;stroke:#000000;stroke-width:20;stroke-linecap:round;stroke-linejoin:round;stroke-miterlimit:10;}
	.st14{fill:#E8C673;stroke:#000000;stroke-width:20;stroke-linecap:round;stroke-linejoin:round;stroke-miterlimit:10;}
	.st15{fill:#F2DF98;}
	.st16{fill:#D0524E;stroke:#000000;stroke-width:20;stroke-linecap:round;stroke-linejoin:round;stroke-miterlimit:10;}
	.st17{fill:#87BF8C;}
	.st18{fill:#AACF9A;}
	.st19{fill:#DE5A5A;}
	.st20{fill:#E8C673;}
	.st21{fill:#7ACBAA;}
	.st22{fill:#EFCDC2;}
	.st23{fill:#6B7DFA;stroke:#000000;stroke-width:20;stroke-linecap:round;stroke-linejoin:round;stroke-miterlimit:10;}
</style>
<g id="GUIDELINES">
</g>
<g id="ICON_1_">
	<g>
		<g>
			<path class="st4" d="M173.9,439.1h164.6C297.6,481.4,256,502,256,502S214.6,481.3,173.9,439.1z"/>
			<g>
				<g>
					<path class="st19" d="M135.6,120.3c-3,4.7-5.9,9.6-8.7,14.7h0.3c-18.5,33.4-31.4,73.7-31.4,121c0,47.3,13,87.6,31.6,121h-0.3
						c2.8,5,5.7,9.9,8.8,14.7h240.5c3-4.7,5.9-9.6,8.7-14.7h-0.3c18.5-33.4,31.4-73.7,31.4-121c0-47.3-13-87.6-31.6-121h0.3
						c-2.8-5-5.7-9.9-8.8-14.7"/>
					<path class="st4" d="M256,10c0,0-41.6,20.6-82.4,62.9h164.6C297.4,30.7,256,10,256,10z"/>
					<path class="st1" d="M376.4,391.7c3-4.7,5.9-9.6,8.7-14.7h-0.3c18.5-33.4,31.4-73.7,31.4-121c0-47.3-13-87.6-31.6-121h0.3
						c-2.8-5-5.7-9.9-8.8-14.7"/>
					<path class="st1" d="M135.6,120.3c-3,4.7-5.9,9.6-8.7,14.7h0.3c-18.5,33.4-31.4,73.7-31.4,121c0,47.3,13,87.6,31.6,121h-0.3
						c2.8,5,5.7,9.9,8.8,14.7"/>
				</g>
				<path class="st8" d="M293.3,120.3H135.6c5.4-8.5,11.2-16.6,17.2-24.1c0,0,13.8-16.1,20.7-23.3h164.6
					c6.9,7.2,13.8,14.9,20.4,23.3c0,0,12.1,15.6,17.6,24.1"/>
				<path class="st8" d="M194.5,391.7h181.8c-5.4,8.5-17.5,24.1-17.5,24.1c-6.6,8.4-13.5,16.1-20.4,23.3H173.9
					c-6.9-7.2-13.8-14.9-20.4-23.3c0,0-12.1-15.6-17.6-24.1"/>
			</g>
		</g>
		<g>
			<line class="st1" x1="256" y1="171.9" x2="256" y2="340.1"/>
			<g>
				<line class="st1" x1="218.7" y1="212.6" x2="293.3" y2="212.6"/>
				<line class="st1" x1="218.7" y1="256" x2="293.3" y2="256"/>
				<line class="st1" x1="218.7" y1="299.4" x2="293.3" y2="299.4"/>
			</g>
		</g>
		<line class="st1" x1="256" y1="12.2" x2="256" y2="64.5"/>
		<line class="st1" x1="256" y1="447.5" x2="256" y2="499.8"/>
	</g>
</g>
</svg>
